<?xml version="1.0" standalone="no"?>
<!DOCTYPE svg PUBLIC "-//W3C//DTD SVG 20010904//EN"
 "http://www.w3.org/TR/2001/REC-SVG-20010904/DTD/svg10.dtd">
<svg version="1.0" xmlns="http://www.w3.org/2000/svg"
 width="440.000000pt" height="476.000000pt" viewBox="0 0 440.000000 476.000000"
 preserveAspectRatio="xMidYMid meet">

<g transform="translate(0.000000,476.000000) scale(0.100000,-0.100000)"
fill="#000000" stroke="none">
<path d="M2329 3854 c-13 -14 -24 -32 -24 -41 0 -9 -7 -19 -15 -23 -8 -4 -29
-14 -46 -23 -30 -16 -32 -15 -49 3 -26 28 -53 25 -86 -11 -20 -22 -34 -29 -48
-24 -11 3 -22 1 -26 -5 -4 -6 -16 -8 -27 -4 -15 4 -31 -5 -63 -36 -24 -24 -41
-48 -38 -56 2 -7 -8 -19 -24 -28 -26 -14 -91 -73 -120 -110 -7 -8 -13 -24 -13
-36 0 -11 -5 -19 -12 -18 -6 2 -14 -10 -18 -27 -4 -16 -14 -44 -23 -62 -20
-38 -22 -144 -7 -358 14 -193 23 -227 72 -270 l41 -34 -12 -76 c-14 -96 -14
-105 2 -105 21 0 35 39 42 119 4 41 17 112 31 157 13 46 29 105 34 132 6 26
24 82 42 125 28 70 30 84 24 147 -6 58 -4 77 15 119 21 49 23 51 93 73 58 18
83 33 137 83 90 83 101 91 142 104 20 7 37 20 40 31 3 12 14 20 25 20 27 0
183 -96 238 -147 66 -60 168 -106 222 -100 32 3 48 0 66 -14 13 -11 31 -19 40
-19 9 0 19 -7 22 -15 4 -9 25 -24 47 -34 40 -18 41 -18 106 4 37 13 67 30 69
38 2 9 16 20 33 26 32 11 40 26 9 18 -12 -3 -20 0 -20 8 0 7 -7 18 -16 26 -14
12 -14 14 2 26 15 11 16 17 8 31 -6 9 -17 17 -25 17 -17 0 -27 21 -28 56 -1
14 -10 34 -21 44 -12 10 -18 25 -15 32 2 8 -7 32 -22 54 -24 37 -30 40 -58 35
-23 -5 -36 -2 -46 10 -8 10 -27 23 -44 31 -16 7 -40 20 -52 29 -20 14 -22 14
-32 -5 l-11 -20 -40 20 c-24 13 -47 18 -60 14 -17 -5 -21 -3 -18 12 1 10 -7
28 -18 39 -26 26 -117 31 -152 8 -21 -14 -25 -14 -35 -1 -16 19 -82 29 -113
17 -18 -7 -33 -6 -54 5 -38 20 -42 19 -71 -11z m261 -44 c0 -5 -7 -10 -15 -10
-8 0 -15 5 -15 10 0 6 7 10 15 10 8 0 15 -4 15 -10z"/>
<path d="M3320 3345 c-13 -14 -32 -25 -42 -25 -22 0 -22 4 2 -111 17 -77 18
-98 8 -117 -9 -18 -9 -36 0 -81 7 -31 12 -78 12 -104 0 -56 18 -148 32 -162 7
-7 9 -2 5 14 -5 21 24 94 44 111 3 3 14 20 23 38 13 25 14 37 5 53 -8 16 -8
27 2 46 11 20 10 28 -5 54 -10 16 -15 38 -11 49 4 12 -4 36 -19 63 -30 51 -32
64 -10 88 11 12 13 27 9 53 -10 52 -27 61 -55 31z m30 -176 c0 -10 5 -21 10
-24 6 -3 10 -11 10 -17 0 -13 -38 20 -51 45 -6 9 -7 22 -4 28 9 14 35 -9 35
-32z"/>
<path d="M2265 3015 c-95 -12 -136 -35 -193 -109 -31 -41 -30 -105 3 -136 22
-21 30 -22 94 -16 72 7 94 -2 71 -29 -17 -20 -6 -32 36 -39 56 -11 137 10 169
44 16 17 36 30 45 30 33 0 80 72 80 121 0 11 9 40 21 65 24 53 22 80 -6 76
-22 -3 -32 -3 -155 1 -47 1 -121 -2 -165 -8z m-175 -199 c0 -3 -4 -8 -10 -11
-5 -3 -10 -1 -10 4 0 6 5 11 10 11 6 0 10 -2 10 -4z m170 -16 c0 -5 -4 -10 -9
-10 -6 0 -13 5 -16 10 -3 6 1 10 9 10 9 0 16 -4 16 -10z"/>
<path d="M2742 3008 c-16 -20 -17 -50 -3 -128 6 -36 11 -68 11 -71 0 -18 68
-88 113 -116 41 -26 62 -33 103 -33 50 0 83 18 70 38 -3 5 6 15 19 22 20 11
33 11 65 1 22 -6 45 -9 51 -6 15 10 0 46 -37 88 -45 49 -44 60 6 52 30 -5 40
-3 40 7 0 21 -90 108 -119 115 -14 3 -31 10 -37 14 -6 5 -38 11 -70 14 -32 3
-91 8 -129 11 -55 5 -74 3 -83 -8z"/>
<path d="M3367 2758 c-3 -12 -2 -29 3 -37 8 -14 9 -14 10 -1 0 8 3 25 6 38 4
12 2 22 -4 22 -5 0 -12 -10 -15 -22z"/>
<path d="M2870 2425 c1 -26 2 -28 11 -12 8 14 8 22 0 30 -8 8 -11 3 -11 -18z"/>
<path d="M2485 2418 c-29 -16 -29 -16 -13 -35 26 -31 28 -50 5 -71 -22 -20
-31 -22 -132 -25 -60 -2 -85 -26 -111 -100 -18 -54 -12 -155 10 -163 7 -3 26
2 42 11 16 8 34 15 41 15 6 0 24 11 40 24 25 21 44 26 126 32 109 8 127 -3 50
-32 -27 -9 -52 -21 -57 -25 -12 -10 -11 -98 1 -110 12 -12 95 -27 209 -38 49
-5 97 -12 107 -16 13 -5 16 -3 11 8 -7 20 16 33 30 16 6 -8 22 -20 37 -27 14
-7 30 -26 36 -42 10 -26 7 -30 -32 -63 -39 -33 -44 -35 -88 -26 -26 5 -56 13
-67 19 -11 6 -24 8 -29 6 -5 -3 -26 1 -46 10 -37 15 -39 15 -101 -17 -62 -31
-65 -32 -123 -19 -32 7 -68 9 -79 6 -23 -8 -62 8 -62 25 0 5 10 14 23 18 l22
9 -25 6 c-14 3 -38 7 -54 8 -24 3 -30 8 -31 31 0 15 2 27 5 27 7 0 30 51 30
67 0 7 -12 20 -26 30 -23 15 -28 15 -38 2 -31 -40 -78 -56 -139 -46 -20 3 -34
-2 -48 -17 -29 -30 -33 -59 -16 -113 23 -73 40 -153 33 -160 -3 -3 1 -18 8
-32 7 -14 20 -39 27 -56 8 -16 18 -33 24 -37 7 -5 6 -14 -2 -27 -9 -15 -10
-27 -2 -43 18 -41 37 -71 51 -80 8 -5 2 -6 -16 -2 -25 6 -28 4 -23 -10 4 -10
7 -20 7 -22 0 -2 8 -4 18 -4 11 0 27 -9 37 -20 10 -11 27 -20 37 -20 27 0 58
-18 58 -34 0 -7 11 -22 25 -32 28 -21 34 -33 45 -89 7 -33 5 -42 -12 -57 -23
-20 -20 -22 45 -33 20 -3 37 -10 37 -15 0 -16 15 -11 46 15 16 14 37 28 47 31
9 3 17 9 17 13 0 9 42 8 57 -2 9 -5 17 1 25 17 6 14 15 26 19 26 4 0 14 3 23
6 9 3 16 2 16 -4 0 -5 -11 -13 -25 -16 -14 -4 -25 -11 -25 -16 0 -13 -8 -15
95 28 261 110 406 220 430 328 l7 29 -34 -37 c-25 -27 -37 -34 -48 -27 -13 7
-13 10 -1 18 9 6 10 11 2 15 -24 15 1 126 28 126 5 0 18 19 29 43 59 124 64
141 59 182 -4 26 -2 46 5 53 9 9 9 12 0 12 -7 0 -12 15 -12 39 0 47 -16 62
-30 27 -10 -28 -48 -52 -60 -39 -5 4 -11 19 -13 33 -3 14 -10 43 -16 66 -7 27
-8 51 -1 74 8 29 5 42 -20 92 -17 32 -30 74 -30 92 0 45 -28 76 -57 65 -13 -5
-23 -15 -23 -22 0 -22 -89 -17 -96 6 -3 9 -14 22 -25 28 -23 12 -17 27 17 39
32 13 32 48 0 56 -13 3 -35 0 -47 -7 -33 -17 -138 -19 -171 -3 -32 17 -66 17
-93 2z m342 -335 c64 -36 116 -80 108 -93 -8 -13 -42 -13 -50 0 -3 6 -14 10
-24 10 -9 0 -27 11 -40 26 -12 14 -42 34 -67 44 -25 11 -42 24 -39 30 11 18
61 10 112 -17z m-697 -615 c0 -16 -3 -19 -11 -11 -6 6 -8 16 -5 22 11 17 16
13 16 -11z"/>
<path d="M2326 2364 c-10 -25 -1 -27 19 -4 15 17 16 20 3 20 -9 0 -19 -7 -22
-16z"/>
<path d="M3179 1658 c-6 -24 -11 -73 -10 -109 1 -47 -9 -108 -34 -205 -48
-187 -81 -334 -146 -644 -6 -25 -23 -124 -40 -220 -35 -207 -45 -264 -64 -345
-7 -33 -16 -77 -20 -97 l-6 -38 771 0 770 0 0 495 0 495 -24 6 c-13 3 -26 14
-29 24 -6 22 -54 37 -75 24 -22 -15 -10 -29 21 -26 15 2 27 -2 27 -7 0 -6 -13
-11 -30 -11 -16 0 -30 -5 -30 -11 0 -5 -5 -7 -11 -4 -5 4 -18 0 -28 -9 -16
-15 -19 -15 -36 4 -10 11 -24 20 -31 20 -21 0 -28 22 -11 35 14 10 15 17 6 46
-7 19 -18 41 -25 50 -12 13 -11 19 6 37 28 30 25 35 -14 29 -26 -4 -40 0 -57
14 -12 10 -32 19 -44 19 -13 0 -30 11 -40 26 -12 19 -22 24 -39 20 -13 -3 -35
3 -55 15 -18 11 -40 18 -47 15 -8 -3 -18 3 -24 14 -5 10 -19 21 -29 25 -11 3
-34 28 -51 56 -17 27 -35 47 -40 44 -5 -3 -22 7 -38 23 -21 21 -37 28 -61 26
-22 -1 -36 4 -44 17 -6 10 -20 19 -31 19 -17 0 -18 -5 -12 -52 3 -29 8 -66 11
-83 5 -25 2 -23 -17 15 -17 33 -30 46 -49 48 -31 4 -63 -29 -65 -66 -1 -35
-31 -41 -52 -10 -28 39 -42 69 -42 92 0 11 -9 35 -20 51 -11 17 -20 40 -20 51
0 12 -7 27 -15 34 -8 7 -18 30 -21 51 -8 51 -20 49 -35 -3z m165 -343 c-4 -8
-10 -12 -15 -9 -14 8 -10 24 6 24 9 0 12 -6 9 -15z m757 -278 c-17 -17 -24 -1
-9 22 11 18 14 19 16 5 2 -9 -1 -21 -7 -27z m199 -79 c0 -16 -17 -44 -23 -38
-3 3 -8 15 -11 28 -6 18 -3 22 13 22 12 0 21 -6 21 -12z"/>
<path d="M3450 1565 c7 -8 19 -15 26 -15 8 0 14 7 14 15 0 10 -10 15 -26 15
-22 0 -25 -2 -14 -15z"/>
<path d="M1820 1527 c-25 -5 -49 -13 -55 -17 -5 -5 -39 -14 -75 -20 -61 -12
-124 -27 -215 -52 -22 -6 -44 -16 -50 -22 -31 -34 -211 -96 -280 -96 -24 0
-45 -5 -47 -11 -2 -5 -24 -12 -48 -15 -25 -3 -62 -10 -82 -16 -28 -8 -41 -8
-52 1 -10 9 -31 9 -82 1 -37 -6 -71 -13 -76 -17 -5 -3 -56 -11 -114 -19 -96
-12 -154 -33 -154 -55 0 -5 -4 -9 -9 -9 -5 0 -7 9 -4 20 3 11 1 20 -5 20 -11
0 -82 -71 -82 -83 0 -4 -16 -22 -36 -39 -19 -17 -33 -37 -30 -44 3 -7 -4 -20
-16 -28 -21 -15 -27 -65 -13 -125 7 -35 -3 -43 -80 -64 -38 -11 -70 -28 -90
-47 -28 -29 -30 -34 -27 -99 l2 -69 -50 -55 -50 -55 0 -256 0 -256 833 0 834
0 43 132 c24 73 47 146 51 163 4 16 19 62 33 101 14 39 37 129 51 200 14 71
33 150 41 176 9 26 12 53 9 59 -12 18 6 158 21 173 10 11 14 44 14 131 0 107
17 220 39 250 4 6 6 28 5 50 -2 22 -3 49 -3 60 -3 47 -18 50 -60 12 -23 -20
-50 -37 -61 -37 -20 0 -20 0 1 30 13 16 21 31 18 33 -2 2 -24 -1 -49 -6z"/>
<path d="M1975 1290 c-11 -34 5 -80 43 -122 44 -49 90 -74 105 -59 8 8 8 11
-1 11 -7 0 -17 11 -22 25 -5 14 -14 25 -20 25 -5 0 -10 8 -10 18 0 10 -11 29
-24 41 -14 13 -30 36 -36 52 -15 34 -26 37 -35 9z"/>
<path d="M4190 1090 c0 -15 34 -79 43 -80 10 0 9 18 -2 24 -4 3 -11 19 -14 36
-6 27 -27 44 -27 20z"/>
<path d="M2510 1065 c-7 -9 -8 -15 -2 -15 5 0 12 7 16 15 3 8 4 15 2 15 -2 0
-9 -7 -16 -15z"/>
</g>
</svg>
